<?xml version="1.0" encoding="UTF-8" standalone="no"?><!DOCTYPE svg PUBLIC "-//W3C//DTD SVG 1.1//EN" "http://www.w3.org/Graphics/SVG/1.1/DTD/svg11.dtd"><svg width="100%" height="100%" viewBox="0 0 32 32" version="1.1" xmlns="http://www.w3.org/2000/svg" xmlns:xlink="http://www.w3.org/1999/xlink" xml:space="preserve" xmlns:serif="http://www.serif.com/" style="fill-rule:evenodd;clip-rule:evenodd;stroke-linejoin:round;stroke-miterlimit:1.41421;"><circle cx="15.715" cy="15.715" r="15.715" style="fill:#175b8c;"/><g><path d="M24.906,10.477c0,-0.021 0.014,-0.041 0.013,-0.062l-5.617,5.412l5.611,5.24c0.003,-0.037 -0.007,-0.075 -0.007,-0.113l0,-10.477Z" style="fill:#fff;fill-rule:nonzero;"/><path d="M18.444,16.66l-2.293,2.207c-0.116,0.111 -0.266,0.167 -0.416,0.167c-0.147,0 -0.293,-0.053 -0.409,-0.161l-2.287,-2.131l-5.647,5.444c0.137,0.049 0.285,0.087 0.439,0.087l15.808,0c0.23,0 0.445,-0.069 0.632,-0.174l-5.827,-5.439Z" style="fill:#fff;fill-rule:nonzero;"/><path d="M15.729,17.609l8.573,-8.259c-0.194,-0.115 -0.42,-0.192 -0.663,-0.192l-15.808,0c-0.315,0 -0.604,0.122 -0.829,0.309l8.727,8.142Z" style="fill:#fff;fill-rule:nonzero;"/><path d="M6.512,10.678l0,10.276c0,0.118 0.027,0.231 0.056,0.34l5.577,-5.371l-5.633,-5.245Z" style="fill:#fff;fill-rule:nonzero;"/></g></svg>