<?xml version="1.0" encoding="UTF-8" standalone="no"?><!DOCTYPE svg PUBLIC "-//W3C//DTD SVG 1.1//EN" "http://www.w3.org/Graphics/SVG/1.1/DTD/svg11.dtd"><svg width="100%" height="100%" viewBox="0 0 36 36" version="1.1" xmlns="http://www.w3.org/2000/svg" xmlns:xlink="http://www.w3.org/1999/xlink" xml:space="preserve" xmlns:serif="http://www.serif.com/" style="fill-rule:evenodd;clip-rule:evenodd;stroke-linecap:square;stroke-miterlimit:1.5;"><circle cx="17.518" cy="17.518" r="15.715" style="fill:none;stroke:#cf1259;stroke-width:2px;"/><g><path d="M26.708,12.28c0,-0.021 0.015,-0.042 0.014,-0.062l-5.617,5.412l5.61,5.24c0.004,-0.037 -0.007,-0.075 -0.007,-0.113l0,-10.477Z" style="fill:#cf1259;fill-rule:nonzero;"/><path d="M20.247,18.463l-2.293,2.207c-0.116,0.111 -0.266,0.167 -0.416,0.167c-0.147,0 -0.294,-0.053 -0.409,-0.161l-2.287,-2.131l-5.647,5.443c0.137,0.05 0.285,0.088 0.439,0.088l15.808,0c0.229,0 0.444,-0.07 0.631,-0.174l-5.826,-5.439Z" style="fill:#cf1259;fill-rule:nonzero;"/><path d="M17.531,19.411l8.573,-8.258c-0.194,-0.115 -0.42,-0.193 -0.662,-0.193l-15.808,0c-0.315,0 -0.604,0.123 -0.829,0.309l8.726,8.142Z" style="fill:#cf1259;fill-rule:nonzero;"/><path d="M8.314,12.481l0,10.275c0,0.118 0.027,0.232 0.057,0.341l5.577,-5.371l-5.634,-5.245Z" style="fill:#cf1259;fill-rule:nonzero;"/></g></svg>