<?xml version="1.0" encoding="UTF-8" standalone="no"?><!DOCTYPE svg PUBLIC "-//W3C//DTD SVG 1.1//EN" "http://www.w3.org/Graphics/SVG/1.1/DTD/svg11.dtd"><svg width="100%" height="100%" viewBox="0 0 36 36" version="1.1" xmlns="http://www.w3.org/2000/svg" xmlns:xlink="http://www.w3.org/1999/xlink" xml:space="preserve" xmlns:serif="http://www.serif.com/" style="fill-rule:evenodd;clip-rule:evenodd;stroke-linecap:square;stroke-miterlimit:1.5;"><circle cx="17.518" cy="17.518" r="15.715" style="fill:none;stroke:#cf1259;stroke-width:2px;"/><path d="M21.19,10.176l-1.905,-0.003c-2.14,0 -3.523,1.419 -3.523,3.615l0,1.667l-1.916,0c-0.165,0 -0.299,0.134 -0.299,0.3l0,2.415c0,0.166 0.134,0.3 0.299,0.3l1.916,0l0,6.094c0,0.166 0.134,0.3 0.299,0.3l2.5,0c0.165,0 0.299,-0.134 0.299,-0.3l0,-6.094l2.24,0c0.165,0 0.299,-0.134 0.299,-0.3l0.001,-2.415c0,-0.08 -0.031,-0.156 -0.087,-0.212c-0.057,-0.056 -0.133,-0.088 -0.212,-0.088l-2.241,0l0,-1.413c0,-0.679 0.162,-1.024 1.047,-1.024l1.283,0c0.165,0 0.3,-0.135 0.3,-0.3l0,-2.243c0,-0.165 -0.134,-0.299 -0.3,-0.299Z" style="fill:#cf1259;fill-rule:nonzero;"/></svg>