<svg viewBox="0 0 32 32" xmlns="http://www.w3.org/2000/svg" fill-rule="evenodd" clip-rule="evenodd" stroke-linejoin="round" stroke-miterlimit="2"><circle cx="1185.71" cy="4814.33" r="15.715" fill="#175b8c" transform="translate(-1169.997 -4798.612)"/><path d="M19.821 7.506l-2.13-.003c-2.394 0-3.94 1.587-3.94 4.043v1.865h-2.143a.335.335 0 00-.335.335v2.701c0 .185.15.335.335.335h2.142v6.816c0 .185.15.335.335.335h2.795c.185 0 .335-.15.335-.335v-6.816h2.505c.185 0 .335-.15.335-.335l.001-2.701a.336.336 0 00-.335-.335h-2.506v-1.58c0-.76.181-1.146 1.17-1.146h1.436c.185 0 .335-.15.335-.336V7.841a.335.335 0 00-.335-.335z" fill="#fff" fill-rule="nonzero"/></svg>