<?xml version="1.0" encoding="UTF-8" standalone="no"?><!DOCTYPE svg PUBLIC "-//W3C//DTD SVG 1.1//EN" "http://www.w3.org/Graphics/SVG/1.1/DTD/svg11.dtd"><svg width="100%" height="100%" viewBox="0 0 36 36" version="1.1" xmlns="http://www.w3.org/2000/svg" xmlns:xlink="http://www.w3.org/1999/xlink" xml:space="preserve" xmlns:serif="http://www.serif.com/" style="fill-rule:evenodd;clip-rule:evenodd;stroke-linecap:square;stroke-miterlimit:1.5;"><circle cx="17.518" cy="17.518" r="15.715" style="fill:none;stroke:#cf1259;stroke-width:2px;"/><clipPath id="_clip1"><rect id="vk-social-logotype" x="7.649" y="7.649" width="19.739" height="19.739"/></clipPath><g clip-path="url(#_clip1)"><path d="M26.57,20.981c-0.588,-0.705 -1.279,-1.306 -1.934,-1.945c-0.59,-0.576 -0.627,-0.91 -0.153,-1.574c0.518,-0.726 1.075,-1.423 1.598,-2.145c0.488,-0.675 0.987,-1.348 1.243,-2.156c0.163,-0.514 0.019,-0.741 -0.508,-0.831c-0.091,-0.016 -0.185,-0.017 -0.277,-0.017l-3.128,-0.004c-0.385,-0.005 -0.598,0.163 -0.734,0.504c-0.184,0.461 -0.374,0.923 -0.593,1.368c-0.497,1.01 -1.052,1.986 -1.83,2.812c-0.172,0.182 -0.362,0.413 -0.648,0.318c-0.359,-0.131 -0.465,-0.722 -0.459,-0.922l-0.003,-3.61c-0.07,-0.516 -0.184,-0.746 -0.696,-0.846l-3.249,0.001c-0.434,0 -0.651,0.167 -0.883,0.438c-0.133,0.157 -0.173,0.259 0.101,0.311c0.539,0.102 0.843,0.451 0.924,0.992c0.129,0.863 0.12,1.731 0.046,2.598c-0.022,0.253 -0.066,0.506 -0.166,0.742c-0.157,0.372 -0.411,0.448 -0.744,0.219c-0.302,-0.207 -0.514,-0.499 -0.721,-0.792c-0.78,-1.101 -1.401,-2.289 -1.908,-3.536c-0.147,-0.361 -0.399,-0.579 -0.781,-0.585c-0.938,-0.015 -1.877,-0.017 -2.815,0.001c-0.565,0.01 -0.733,0.285 -0.503,0.796c1.022,2.274 2.159,4.484 3.644,6.497c0.763,1.033 1.638,1.945 2.769,2.592c1.281,0.732 2.661,0.953 4.114,0.885c0.68,-0.032 0.884,-0.209 0.916,-0.887c0.021,-0.464 0.074,-0.925 0.303,-1.342c0.224,-0.409 0.564,-0.487 0.957,-0.233c0.196,0.128 0.361,0.29 0.517,0.461c0.383,0.419 0.752,0.851 1.15,1.255c0.498,0.508 1.089,0.807 1.831,0.746l2.875,0.001c0.463,-0.03 0.703,-0.598 0.437,-1.115c-0.187,-0.362 -0.432,-0.685 -0.692,-0.997Z" style="fill:#cf1259;fill-rule:nonzero;"/></g></svg>