<?xml version="1.0" encoding="UTF-8" standalone="no"?>
<!DOCTYPE svg PUBLIC "-//W3C//DTD SVG 1.1//EN" "http://www.w3.org/Graphics/SVG/1.1/DTD/svg11.dtd">
<svg width="100%" height="100%" viewBox="0 0 1482 1570" version="1.1" xmlns="http://www.w3.org/2000/svg" xmlns:xlink="http://www.w3.org/1999/xlink" xml:space="preserve" xmlns:serif="http://www.serif.com/" style="fill-rule:evenodd;clip-rule:evenodd;stroke-linejoin:round;stroke-miterlimit:2;">
    <g transform="matrix(1,0,0,1,774.491,-4598.03)">
        <g transform="matrix(0.563489,-0.826124,0.826124,0.563489,-2521.71,3863.91)">
            <g transform="matrix(0.769443,0.421136,-0.421136,0.769443,414.36,870.134)">
                <path d="M1349.45,2981.09C1216.2,3060.01 1060.73,3105.29 894.78,3105.29C400.937,3105.29 0,2704.35 0,2210.51C0,1716.66 400.937,1315.73 894.78,1315.73C1386.44,1315.73 1786.01,1713.13 1789.48,2203.97C1758.16,1790.8 1412.54,1464.82 991.39,1464.82C549.635,1464.82 190.986,1823.47 190.986,2265.22C190.986,2706.97 549.635,3065.62 991.39,3065.62C1120.08,3065.62 1241.72,3035.19 1349.45,2981.09Z" style="fill:rgb(24,91,141);"/>
            </g>
        </g>
    </g>
</svg>
