<svg width="55" height="38" viewBox="0 0 55 38" fill="none" xmlns="http://www.w3.org/2000/svg">
<path d="M13.1893 5.01657C14.411 3.38621 16.4247 0.0627826 26.1787 0.0813488V5.70634L19.9107 5.01657H13.1893Z" fill="#507BFF"/>
<path d="M9.31379 17.8084C9.31379 8.59062 18.7531 3.76225 26.1787 4.2639V31.6038C16.3618 31.2902 9.31379 27.0262 9.31379 17.8084Z" fill="#DBE3FF"/>
<path d="M17.3687 17.8811C17.3687 12.3989 22.1682 9.37816 26.1787 9.82569V26.0857C21.0505 25.8992 17.3687 23.3633 17.3687 17.8811Z" fill="#507BFF"/>
<rect x="26" width="9" height="38" fill="#DBE3FF"/>
<rect x="10.9495" y="12.9175" width="10.8238" height="13.1683" fill="#353B4E"/>
<rect x="5.79004" y="26.0858" width="20.3889" height="5.51814" fill="#DBE3FF"/>
<path fill-rule="evenodd" clip-rule="evenodd" d="M0 38L13.1904 5.01654H19.9101L33.1006 38H25.8831L23.4189 31.6025L30.5427 31.6039L28.3359 26.0858H21.2954L23.4189 31.6025H9.83062L7.21741 38H0ZM11.8306 26.0858L16.4293 13.4192L21.2954 26.0858H11.8306Z" fill="#EC5247"/>
<rect x="33.1008" y="32.6073" width="6.29288" height="5.39273" fill="#507BFF"/>
<path d="M55 17.1617C55 8.14077 47.3857 -0.951617 33.1008 0.0802854V34.0561C45.9383 34.745 55 26.1826 55 17.1617Z" fill="#507BFF"/>
<path d="M55 18.7942C55 6.36056 47.3857 2.4202 33.1008 3.35301V33.9409C46.0642 36.0561 55 31.2278 55 18.7942Z" fill="#507BFF"/>
<path d="M49.9657 17.8086C49.9657 8.59083 40.7781 3.51163 33.1008 4.26411V31.604C42.9177 31.2905 49.9657 27.0264 49.9657 17.8086Z" fill="#DBE3FF"/>
<path d="M41.9109 17.8811C41.9109 12.3989 37.1114 9.37816 33.1008 9.82569V26.0857C38.2291 25.8992 41.9109 23.3633 41.9109 17.8811Z" fill="#507BFF"/>
<rect x="26.1787" y="26.0858" width="7.04803" height="5.51814" fill="#DBE3FF"/>
</svg>
