<?xml version="1.0" encoding="UTF-8" standalone="no"?>
<!DOCTYPE svg PUBLIC "-//W3C//DTD SVG 1.1//EN" "http://www.w3.org/Graphics/SVG/1.1/DTD/svg11.dtd">
<svg width="100%" height="100%" viewBox="0 0 1271 1271" version="1.1" xmlns="http://www.w3.org/2000/svg" xmlns:xlink="http://www.w3.org/1999/xlink" xml:space="preserve" xmlns:serif="http://www.serif.com/" style="fill-rule:evenodd;clip-rule:evenodd;stroke-linejoin:round;stroke-miterlimit:2;">
    <g transform="matrix(1,0,0,1,-1133.19,-987.989)">
        <path d="M2066.97,2184.01C1757.48,2348.75 1372.47,2231.24 1207.73,1921.76C1042.99,1612.28 1160.5,1227.27 1469.98,1062.52C1779.46,897.781 2164.47,1015.29 2329.21,1324.77C2493.96,1634.25 2376.45,2019.26 2066.97,2184.01ZM2052.69,2170.93C1775.85,2318.29 1431.45,2213.18 1284.08,1936.34C1136.71,1659.5 1241.83,1315.1 1518.67,1167.73C1795.51,1020.36 2139.91,1125.48 2287.27,1402.32C2434.64,1679.16 2329.53,2023.56 2052.69,2170.93Z" style="fill:rgb(230,230,230);"/>
    </g>
</svg>
