<svg width="100%" height="100%" viewBox="0 0 32 32" version="1.1" xmlns="http://www.w3.org/2000/svg" xmlns:xlink="http://www.w3.org/1999/xlink" xml:space="preserve" xmlns:serif="http://www.serif.com/" style="fill-rule:evenodd;clip-rule:evenodd;stroke-linejoin:round;stroke-miterlimit:2;">
    <g transform="matrix(1,0,0,1,-1316.75,-4909)">
        <g transform="matrix(1,0,0,1,-1.81557,110.388)">
            <g transform="matrix(1,0,0,1,148.569,0)">
                <circle cx="1185.71" cy="4814.33" r="15.715" style="fill:rgb(0,179,208);"/>
            </g>
        </g>
        <g transform="matrix(1,0,0,1,-1.81557,110.388)">
            <g id="facebook-logo--1-" serif:id="facebook-logo (1)" transform="matrix(0.170934,0,0,0.170934,1334.28,4814.33)">
                <g transform="matrix(1,0,0,1,-48.062,-48.0615)">
                    <path d="M72.089,0.02L59.624,0C45.62,0 36.57,9.285 36.57,23.656L36.57,34.563L24.037,34.563C22.954,34.563 22.077,35.441 22.077,36.524L22.077,52.327C22.077,53.41 22.955,54.287 24.037,54.287L36.57,54.287L36.57,94.163C36.57,95.246 37.447,96.123 38.53,96.123L54.882,96.123C55.965,96.123 56.842,95.245 56.842,94.163L56.842,54.287L71.496,54.287C72.579,54.287 73.456,53.41 73.456,52.327L73.462,36.524C73.462,36.004 73.255,35.506 72.888,35.138C72.521,34.77 72.021,34.563 71.501,34.563L56.842,34.563L56.842,25.317C56.842,20.873 57.901,18.617 63.69,18.617L72.087,18.614C73.169,18.614 74.046,17.736 74.046,16.654L74.046,1.98C74.046,0.899 73.17,0.022 72.089,0.02Z" style="fill:white;fill-rule:nonzero;"/>
                </g>
            </g>
        </g>
    </g>
</svg>
