<?xml version="1.0" encoding="UTF-8" standalone="no"?>
<!DOCTYPE svg PUBLIC "-//W3C//DTD SVG 1.1//EN" "http://www.w3.org/Graphics/SVG/1.1/DTD/svg11.dtd">
<svg width="100%" height="100%" viewBox="0 0 512 512" version="1.1" xmlns="http://www.w3.org/2000/svg" xmlns:xlink="http://www.w3.org/1999/xlink" xml:space="preserve" xmlns:serif="http://www.serif.com/" style="fill-rule:evenodd;clip-rule:evenodd;stroke-linejoin:round;stroke-miterlimit:2;">
    <path d="M405.537,203.085C405.507,203.047 405.474,203.009 405.444,202.972L361.549,141.769L361.549,116.471L379.012,116.471C383.478,116.471 387.096,112.853 387.096,108.387L387.096,8.084C387.096,3.618 383.478,0 379.012,0L132.99,0C128.524,0 124.906,3.619 124.906,8.084L124.906,108.386C124.906,112.852 128.524,116.47 132.99,116.47L150.455,116.47L150.455,141.768L106.515,203.031C101.283,208.732 98.41,216.089 98.41,223.827L98.41,481.205C98.41,498.185 112.223,511.998 129.203,511.998L382.797,511.998C399.777,511.998 413.59,498.185 413.59,481.205L413.59,401.043L413.59,251.688L413.59,223.827C413.591,216.116 410.737,208.781 405.537,203.085ZM337.893,16.168L370.928,16.168L370.928,100.302L353.465,100.302L337.893,100.302L337.893,16.168ZM345.381,116.471L345.381,136.285L166.623,136.285L166.623,116.471L345.381,116.471ZM288.688,16.168L321.723,16.168L321.723,100.302L288.688,100.302L288.688,16.168ZM239.484,16.168L272.519,16.168L272.519,100.302L239.484,100.302L239.484,16.168ZM190.277,16.168L223.314,16.168L223.314,100.302L190.277,100.302L190.277,16.168ZM141.074,100.302L141.074,16.168L174.109,16.168L174.109,100.302L158.539,100.302L141.074,100.302ZM397.423,392.961L189.541,392.961C185.075,392.961 181.457,396.58 181.457,401.045C181.457,405.51 185.075,409.129 189.541,409.129L397.423,409.129L397.423,481.207C397.423,489.271 390.862,495.832 382.798,495.832L129.204,495.832C121.139,495.832 114.579,489.271 114.579,481.207L114.579,409.129L161.514,409.129C165.98,409.129 169.598,405.51 169.598,401.045C169.598,396.58 165.98,392.961 161.514,392.961L114.579,392.961L114.579,259.773L397.423,259.773L397.423,392.961ZM397.423,243.604L114.579,243.604L114.579,223.827C114.579,220.047 116.031,216.453 118.667,213.709C119.041,213.32 119.369,212.901 119.652,212.458L162.689,152.454L349.314,152.454L392.345,212.452C392.628,212.896 392.958,213.319 393.333,213.708C395.97,216.456 397.423,220.049 397.423,223.829L397.423,243.604Z" style="fill-rule:nonzero;"/>
</svg>
