<svg viewBox="0 0 512 512" xmlns="http://www.w3.org/2000/svg" fill-rule="evenodd" clip-rule="evenodd" stroke-linejoin="round" stroke-miterlimit="2"><g fill-rule="nonzero"><path d="M394.821 302.467c0-76.546-62.275-138.821-138.821-138.821-76.546 0-138.821 62.275-138.821 138.821 0 76.546 62.275 138.821 138.821 138.821 76.546 0 138.821-62.274 138.821-138.821zm-262.642 0c0-68.275 55.546-123.821 123.821-123.821s123.821 55.546 123.821 123.821S324.275 426.288 256 426.288s-123.821-55.545-123.821-123.821z"/><path d="M484.297 119.199h-94.526V96.395a7.5 7.5 0 00-7.5-7.5h-7.652V53.967c0-15.275-12.428-27.703-27.703-27.703H212.677a7.5 7.5 0 00-7.5 7.5 7.5 7.5 0 007.5 7.5h134.238c7.005 0 12.703 5.699 12.703 12.703v34.927h-15.305V64.069a7.5 7.5 0 00-7.5-7.5H175.187a7.5 7.5 0 00-7.5 7.5v24.825h-15.305V53.967c0-7.004 5.698-12.703 12.703-12.703H177.5a7.5 7.5 0 007.5-7.5 7.5 7.5 0 00-7.5-7.5h-12.415c-15.275 0-27.703 12.428-27.703 27.703v34.927h-7.652a7.5 7.5 0 00-7.5 7.5v22.805H27.703C12.428 119.199 0 131.627 0 146.902v111.185a7.5 7.5 0 007.5 7.5 7.5 7.5 0 007.5-7.5V146.902c0-7.004 5.698-12.703 12.703-12.703h18.764v32.906a7.5 7.5 0 007.5 7.5h50.509a7.5 7.5 0 007.5-7.5v-32.906h288.049v32.906a7.5 7.5 0 007.5 7.5h50.509a7.5 7.5 0 007.5-7.5v-32.906h18.764c7.005 0 12.703 5.699 12.703 12.703v111.185a7.5 7.5 0 007.5 7.5 7.5 7.5 0 007.5-7.5V146.902c-.001-15.275-12.429-27.703-27.704-27.703zm-109.526 0h-45.61v-15.305h45.61v15.305zm-192.084-47.63h146.627v17.325h-7.653a7.5 7.5 0 00-7.5 7.5v22.805H197.84V96.395a7.5 7.5 0 00-7.5-7.5h-7.653V71.569zm-45.458 32.326h45.61V119.2h-45.61v-15.305zm-40.253 55.71H61.467v-25.406h35.509v25.406zm353.557 0h-35.509v-25.406h35.509v25.406zM504.5 285.607a7.5 7.5 0 00-7.5 7.5v164.926c0 7.004-5.698 12.703-12.703 12.703H27.703c-7.005 0-12.703-5.699-12.703-12.703V293.107a7.5 7.5 0 00-7.5-7.5 7.5 7.5 0 00-7.5 7.5v164.926c0 15.275 12.428 27.703 27.703 27.703h456.594c15.275 0 27.703-12.428 27.703-27.703V293.107a7.5 7.5 0 00-7.5-7.5z"/><path d="M293.805 393.382v-53.11h53.11a7.5 7.5 0 007.5-7.5v-60.61a7.5 7.5 0 00-7.5-7.5h-53.11v-53.11a7.5 7.5 0 00-7.5-7.5h-60.609a7.5 7.5 0 00-7.5 7.5v53.11h-53.11a7.5 7.5 0 00-7.5 7.5v60.61a7.5 7.5 0 007.5 7.5h53.11v53.11a7.5 7.5 0 007.5 7.5h60.609a7.5 7.5 0 007.5-7.5zm-15-60.61v53.11h-45.609v-53.11a7.5 7.5 0 00-7.5-7.5h-53.11v-45.61h53.11a7.5 7.5 0 007.5-7.5v-53.11h45.609v53.11a7.5 7.5 0 007.5 7.5h53.11v45.61h-53.11a7.5 7.5 0 00-7.5 7.5z"/></g></svg>