<?xml version="1.0" encoding="UTF-8" standalone="no"?>
<!DOCTYPE svg PUBLIC "-//W3C//DTD SVG 1.1//EN" "http://www.w3.org/Graphics/SVG/1.1/DTD/svg11.dtd">
<svg width="100%" height="100%" viewBox="0 0 513 513" version="1.1" xmlns="http://www.w3.org/2000/svg" xmlns:xlink="http://www.w3.org/1999/xlink" xml:space="preserve" xmlns:serif="http://www.serif.com/" style="fill-rule:evenodd;clip-rule:evenodd;stroke-linejoin:round;stroke-miterlimit:2;">
    <path d="M497.036,459.676L129.738,459.676C128.81,459.676 127.923,459.845 127.096,460.14L203.675,383.561L203.737,383.623C205.214,385.1 207.216,385.929 209.305,385.929C211.393,385.929 213.395,385.1 214.873,383.623L272.415,326.08C273.711,326.919 275.199,327.342 276.687,327.342C278.701,327.342 280.717,326.574 282.255,325.036L499.865,107.426C516.049,91.241 516.049,64.905 499.865,48.72C483.678,32.535 457.344,32.532 441.158,48.72L416.576,73.301C413.501,76.376 413.501,81.36 416.576,84.434C419.651,87.508 424.635,87.51 427.71,84.434L452.292,59.853C462.337,49.807 478.683,49.806 488.729,59.853C498.775,69.899 498.775,86.246 488.729,96.292L276.685,308.334L240.248,271.895L409.6,102.542C412.675,99.467 412.675,94.482 409.6,91.409C406.523,88.333 401.539,88.335 398.466,91.409L223.546,266.329C220.873,269.002 220.527,273.117 222.502,276.168L164.959,333.711C163.483,335.187 162.654,337.19 162.654,339.278C162.654,341.366 163.483,343.369 164.959,344.845L165.021,344.907L111.267,398.661C109.791,400.137 108.962,402.14 108.962,404.228L108.962,459.267C108.962,460.197 109.143,461.092 109.448,461.935C108.028,460.539 106.082,459.676 103.932,459.676L7.873,459.676C3.524,459.676 0,463.201 0,467.549C0,471.897 3.524,475.422 7.873,475.422L103.932,475.422C108.281,475.422 111.805,471.897 111.805,467.549C111.805,466.603 111.63,465.701 111.324,464.862C112.033,465.561 112.866,466.145 113.822,466.54C114.796,466.943 115.819,467.139 116.833,467.139C118.852,467.139 120.833,466.359 122.333,464.896C122.036,465.726 121.865,466.616 121.865,467.549C121.865,471.897 125.39,475.422 129.738,475.422L497.037,475.422C501.386,475.422 504.91,471.897 504.91,467.549C504.909,463.2 501.385,459.676 497.036,459.676ZM236.986,290.903L261.153,315.07L236.986,339.238L236.986,290.903ZM210.13,310.807L221.24,299.697L221.24,354.984L210.13,366.095L210.13,310.807ZM194.385,326.552L194.385,352.001L181.722,339.339L181.659,339.276L194.385,326.552ZM124.707,407.488L176.155,356.04L192.541,372.426L124.707,440.26L124.707,407.488Z" style="fill-rule:nonzero;"/>
</svg>
