<?xml version="1.0" encoding="UTF-8" standalone="no"?>
<!DOCTYPE svg PUBLIC "-//W3C//DTD SVG 1.1//EN" "http://www.w3.org/Graphics/SVG/1.1/DTD/svg11.dtd">
<svg width="100%" height="100%" viewBox="0 0 512 512" version="1.1" xmlns="http://www.w3.org/2000/svg" xmlns:xlink="http://www.w3.org/1999/xlink" xml:space="preserve" xmlns:serif="http://www.serif.com/" style="fill-rule:evenodd;clip-rule:evenodd;stroke-linejoin:round;stroke-miterlimit:2;">
    <g>
        <path d="M394.821,302.467C394.821,225.921 332.546,163.646 256,163.646C179.454,163.646 117.179,225.921 117.179,302.467C117.179,379.013 179.454,441.288 256,441.288C332.546,441.288 394.821,379.014 394.821,302.467ZM132.179,302.467C132.179,234.192 187.725,178.646 256,178.646C324.275,178.646 379.821,234.192 379.821,302.467C379.821,370.742 324.275,426.288 256,426.288C187.725,426.288 132.179,370.743 132.179,302.467Z" style="fill-rule:nonzero;"/>
        <path d="M484.297,119.199L389.771,119.199L389.771,96.395C389.771,92.253 386.414,88.895 382.271,88.895L374.619,88.895L374.619,53.967C374.619,38.692 362.191,26.264 346.916,26.264L212.677,26.264C208.534,26.264 205.177,29.622 205.177,33.764C205.177,37.906 208.534,41.264 212.677,41.264L346.915,41.264C353.92,41.264 359.618,46.963 359.618,53.967L359.618,88.894L344.313,88.894L344.313,64.069C344.313,59.927 340.956,56.569 336.813,56.569L175.187,56.569C171.044,56.569 167.687,59.927 167.687,64.069L167.687,88.894L152.382,88.894L152.382,53.967C152.382,46.963 158.08,41.264 165.085,41.264L177.5,41.264C181.643,41.264 185,37.906 185,33.764C185,29.622 181.643,26.264 177.5,26.264L165.085,26.264C149.81,26.264 137.382,38.692 137.382,53.967L137.382,88.894L129.73,88.894C125.587,88.894 122.23,92.252 122.23,96.394L122.23,119.199L27.703,119.199C12.428,119.199 0,131.627 0,146.902L0,258.087C0,262.229 3.357,265.587 7.5,265.587C11.643,265.587 15,262.229 15,258.087L15,146.902C15,139.898 20.698,134.199 27.703,134.199L46.467,134.199L46.467,167.105C46.467,171.247 49.824,174.605 53.967,174.605L104.476,174.605C108.619,174.605 111.976,171.247 111.976,167.105L111.976,134.199L400.025,134.199L400.025,167.105C400.025,171.247 403.382,174.605 407.525,174.605L458.034,174.605C462.177,174.605 465.534,171.247 465.534,167.105L465.534,134.199L484.298,134.199C491.303,134.199 497.001,139.898 497.001,146.902L497.001,258.087C497.001,262.229 500.358,265.587 504.501,265.587C508.644,265.587 512.001,262.229 512.001,258.087L512.001,146.902C512,131.627 499.572,119.199 484.297,119.199ZM374.771,119.199L329.161,119.199L329.161,103.894L374.771,103.894L374.771,119.199ZM182.687,71.569L329.314,71.569L329.314,88.894L321.661,88.894C317.518,88.894 314.161,92.252 314.161,96.394L314.161,119.199L197.84,119.199L197.84,96.395C197.84,92.253 194.483,88.895 190.34,88.895L182.687,88.895L182.687,71.569ZM137.229,103.895L182.839,103.895L182.839,119.2L137.229,119.2L137.229,103.895ZM96.976,159.605L61.467,159.605L61.467,134.199L96.976,134.199L96.976,159.605ZM450.533,159.605L415.024,159.605L415.024,134.199L450.533,134.199L450.533,159.605Z" style="fill-rule:nonzero;"/>
        <path d="M504.5,285.607C500.357,285.607 497,288.965 497,293.107L497,458.033C497,465.037 491.302,470.736 484.297,470.736L27.703,470.736C20.698,470.736 15,465.037 15,458.033L15,293.107C15,288.965 11.643,285.607 7.5,285.607C3.357,285.607 0,288.965 0,293.107L0,458.033C0,473.308 12.428,485.736 27.703,485.736L484.297,485.736C499.572,485.736 512,473.308 512,458.033L512,293.107C512,288.965 508.643,285.607 504.5,285.607Z" style="fill-rule:nonzero;"/>
        <path d="M293.805,393.382L293.805,340.272L346.915,340.272C351.058,340.272 354.415,336.914 354.415,332.772L354.415,272.162C354.415,268.02 351.058,264.662 346.915,264.662L293.805,264.662L293.805,211.552C293.805,207.41 290.448,204.052 286.305,204.052L225.696,204.052C221.553,204.052 218.196,207.41 218.196,211.552L218.196,264.662L165.086,264.662C160.943,264.662 157.586,268.02 157.586,272.162L157.586,332.772C157.586,336.914 160.943,340.272 165.086,340.272L218.196,340.272L218.196,393.382C218.196,397.524 221.553,400.882 225.696,400.882L286.305,400.882C290.447,400.882 293.805,397.524 293.805,393.382ZM278.805,332.772L278.805,385.882L233.196,385.882L233.196,332.772C233.196,328.63 229.839,325.272 225.696,325.272L172.586,325.272L172.586,279.662L225.696,279.662C229.839,279.662 233.196,276.304 233.196,272.162L233.196,219.052L278.805,219.052L278.805,272.162C278.805,276.304 282.162,279.662 286.305,279.662L339.415,279.662L339.415,325.272L286.305,325.272C282.162,325.272 278.805,328.63 278.805,332.772Z" style="fill-rule:nonzero;"/>
    </g>
</svg>
