<svg viewBox="0 0 512 512" xmlns="http://www.w3.org/2000/svg" fill-rule="evenodd" clip-rule="evenodd" stroke-linejoin="round" stroke-miterlimit="2"><path d="M405.537 203.085l-.093-.113-43.895-61.203v-25.298h17.463a8.082 8.082 0 008.084-8.084V8.084A8.082 8.082 0 00379.012 0H132.99a8.083 8.083 0 00-8.084 8.084v100.302a8.082 8.082 0 008.084 8.084h17.465v25.298l-43.94 61.263c-5.232 5.701-8.105 13.058-8.105 20.796v257.378c0 16.98 13.813 30.793 30.793 30.793h253.594c16.98 0 30.793-13.813 30.793-30.793V223.827c.001-7.711-2.853-15.046-8.053-20.742zM337.893 16.168h33.035v84.134h-33.035V16.168zm7.488 100.303v19.814H166.623v-19.814h178.758zM288.688 16.168h33.035v84.134h-33.035V16.168zm-49.204 0h33.035v84.134h-33.035V16.168zm-49.207 0h33.037v84.134h-33.037V16.168zm-49.203 84.134V16.168h33.035v84.134h-33.035zm256.349 292.659H189.541a8.083 8.083 0 00-8.084 8.084 8.083 8.083 0 008.084 8.084h207.882v72.078c0 8.064-6.561 14.625-14.625 14.625H129.204c-8.065 0-14.625-6.561-14.625-14.625v-72.078h46.935a8.083 8.083 0 008.084-8.084 8.083 8.083 0 00-8.084-8.084h-46.935V259.773h282.844v133.188zm0-149.357H114.579v-19.777c0-3.78 1.452-7.374 4.088-10.118.374-.389.702-.808.985-1.251l43.037-60.004h186.625l43.031 59.998c.283.444.613.867.988 1.256 2.637 2.748 4.09 6.341 4.09 10.121v19.775z" fill-rule="nonzero"/></svg>