<svg viewBox="0 0 512 512" xmlns="http://www.w3.org/2000/svg" fill-rule="evenodd" clip-rule="evenodd" stroke-linejoin="round" stroke-miterlimit="2"><path d="M504.485 103.209A7.514 7.514 0 00512 95.694V71.648c0-21.823-17.755-39.577-39.577-39.577H191.875c-21.823 0-39.577 17.755-39.577 39.577v34.975C65.904 119.928 0 186.864 0 267.196c0 26.235 7.197 52.308 20.812 75.401 12.104 20.53 29.287 38.784 49.924 53.091l-30.103 73.908c-1.108 2.722-.494 5.928 1.544 8.045 2.335 2.425 6.112 2.996 9.059 1.364l94.454-52.342a208 208 0 0038.17 3.521c66.379 0 124.65-31.346 156.978-78.216l111.221 78.508c2.844 2.007 6.8 1.764 9.379-.572 2.187-1.981 3.016-5.144 2.083-7.944l-23.423-70.265h32.324c21.823 0 39.577-17.755 39.577-39.577V132.099a7.514 7.514 0 00-7.515-7.515 7.514 7.514 0 00-7.515 7.515v180.019c0 13.536-11.011 24.548-24.548 24.548h-42.75c-5.04 0-8.726 5.102-7.129 9.891l19.48 58.439-93.241-65.817c12.114-21.721 18.936-46.158 18.936-71.984 0-89.87-82.478-162.984-183.859-162.984-5.573 0-11.085.233-16.532.666v-33.23c0-13.536 11.012-24.548 24.548-24.548h280.548c13.536 0 24.548 11.012 24.548 24.548v24.047a7.515 7.515 0 007.515 7.515zM183.859 415.152c-12.794 0-25.558-1.264-37.937-3.756a7.508 7.508 0 00-5.126.794l-78.204 43.338 24.376-59.846a7.515 7.515 0 00-2.894-9.154c-43.233-27.822-69.045-72.432-69.045-119.332 0-72.131 59.209-132.362 137.268-145.351v190.273c0 21.823 17.755 39.577 39.577 39.577h130.491c-30.539 38.329-81.233 63.457-138.506 63.457zm0-295.911c93.093 0 168.83 66.373 168.83 147.955 0 25.093-7.174 48.743-19.806 69.47H191.875c-13.536 0-24.548-11.011-24.548-24.548V119.951a193.66 193.66 0 0116.532-.71z" fill-rule="nonzero"/><path d="M309.927 200.247c-11.662-10.861-32.742-12.327-55.076 7.145-22.334-19.473-43.415-18.008-55.075-7.145-11.74 10.936-14.4 32.452 3.231 52.414 16.952 19.194 45.536 45.64 46.744 46.756 2.841 2.626 7.356 2.625 10.198 0 1.208-1.116 29.792-27.562 46.745-46.756 17.633-19.962 14.972-41.477 3.233-52.414zm-14.495 42.465c-12.265 13.886-31.484 32.312-40.58 40.893-9.096-8.58-28.309-27-40.579-40.893-11.27-12.76-10.67-25.489-4.251-31.467 2.626-2.446 6.268-3.876 10.661-3.876 7.75 0 17.838 4.45 28.808 15.619 2.903 2.956 7.819 2.956 10.722 0 17.19-17.498 32.21-18.505 39.47-11.743 6.417 5.979 7.018 18.707-4.251 31.467z" fill-rule="nonzero"/></svg>