<?xml version="1.0" encoding="UTF-8" standalone="no"?><!DOCTYPE svg PUBLIC "-//W3C//DTD SVG 1.1//EN" "http://www.w3.org/Graphics/SVG/1.1/DTD/svg11.dtd"><svg width="100%" height="100%" viewBox="0 0 36 36" version="1.1" xmlns="http://www.w3.org/2000/svg" xmlns:xlink="http://www.w3.org/1999/xlink" xml:space="preserve" xmlns:serif="http://www.serif.com/" style="fill-rule:evenodd;clip-rule:evenodd;stroke-linecap:square;stroke-miterlimit:1.5;"><circle cx="17.518" cy="17.518" r="15.715" style="fill:none;stroke:#cf1259;stroke-width:2px;"/><path d="M17.52,8.868c-3.164,0 -5.739,2.584 -5.739,5.764c0,3.06 5.216,11.035 5.439,11.375c0.065,0.099 0.177,0.161 0.3,0.161c0.12,0 0.231,-0.062 0.297,-0.161c0.222,-0.34 5.438,-8.315 5.438,-11.375c0,-3.18 -2.57,-5.764 -5.735,-5.764Zm0,8.29c-1.384,0 -2.513,-1.135 -2.513,-2.526c0,-1.391 1.129,-2.521 2.513,-2.521c1.385,0 2.509,1.13 2.509,2.521c0,1.391 -1.124,2.526 -2.509,2.526Z" style="fill:#cf1259;fill-rule:nonzero;"/></svg>