<?xml version="1.0" encoding="UTF-8" standalone="no"?>
<!DOCTYPE svg PUBLIC "-//W3C//DTD SVG 1.1//EN" "http://www.w3.org/Graphics/SVG/1.1/DTD/svg11.dtd">
<svg width="100%" height="100%" viewBox="0 0 1783 1656" version="1.1" xmlns="http://www.w3.org/2000/svg" xmlns:xlink="http://www.w3.org/1999/xlink" xml:space="preserve" xmlns:serif="http://www.serif.com/" style="fill-rule:evenodd;clip-rule:evenodd;stroke-linejoin:round;stroke-miterlimit:2;">
    <g transform="matrix(1,0,0,1,117.145,844.172)">
        <g>
            <g transform="matrix(0.724299,0.396427,-0.421136,0.769443,1198.37,-2125.21)">
                <path d="M162.93,1695.91C324.904,1466.01 592.43,1315.73 894.78,1315.73C1388.62,1315.73 1789.56,1716.66 1789.56,2210.51C1789.56,2446.58 1697.94,2661.42 1548.3,2821.35C1578.68,2760.47 1601.98,2695.84 1617.13,2628.43C1640.75,2555.04 1653.42,2477.27 1653.42,2396.72C1653.42,2090.54 1470.38,1824.28 1201.75,1689.74C1053.43,1599.61 876.815,1547.3 687.319,1547.3C493.563,1547.3 313.268,1601.98 162.93,1695.91Z" style="fill:rgb(24,91,141);"/>
            </g>
            <g transform="matrix(0.769443,0.421136,-0.421136,0.769443,910.189,-2051.38)">
                <path d="M401.157,1464.34C319.622,1587.19 266.481,1732.78 251.903,1890.32C220.522,1976.03 203.39,2068.61 203.39,2165.16C203.39,2606.91 562.039,2965.56 1003.79,2965.56C1253.96,2965.56 1477.47,2850.54 1624.25,2670.53C1652.88,2645.54 1679.94,2618.59 1705.22,2589.81C1562.43,2894.26 1253.06,3105.29 894.78,3105.29C400.937,3105.29 0,2704.35 0,2210.51C0,1899.05 159.473,1624.55 401.157,1464.34Z" style="fill:rgb(230,230,230);"/>
            </g>
            <g transform="matrix(0.769443,0.421136,-0.421136,0.769443,910.189,-2051.38)">
                <path d="M1624.25,2670.53C1689.43,2590.67 1739.48,2497.97 1770.03,2396.86C1755.73,2464.29 1733.83,2528.93 1705.22,2589.81C1679.92,2618.56 1652.86,2645.53 1624.25,2670.53Z" style="fill:rgb(230,230,230);"/>
            </g>
        </g>
    </g>
</svg>
