<svg viewBox="0 0 1783 1656" xmlns="http://www.w3.org/2000/svg" fill-rule="evenodd" clip-rule="evenodd" stroke-linejoin="round" stroke-miterlimit="2"><path d="M719.316 88.458c214.137-112.684 471.194-122.262 690.186-2.402 357.688 195.772 479.242 663.208 271.264 1043.197-99.417 181.643-256.255 310.63-431.99 374.365 47.642-34.8 91.736-75.293 131.098-121.155 48.015-47.106 89.944-101.923 123.866-163.901 128.944-235.588 108.5-513.022-29.409-723.035-69.471-128.148-175.364-238.413-312.615-313.534-140.338-76.81-293.953-106.21-442.4-93.535z" fill="#185b8d"/><path d="M719.315 88.46C604.842 148.649 502.64 238.292 425.077 353.37c-60.241 52.734-112.412 116.754-153.073 191.044-186.037 339.902-61.117 766.902 278.785 952.94 192.492 105.355 412.909 110.982 601.656 34.289a757.778 757.778 0 0096.296-28.01c-238.083 174.123-564.998 206.211-840.674 55.327C28.083 1350.985-111.565 873.635 96.409 493.653 227.576 254.003 465.883 109.95 719.315 88.46z" fill="#e6e6e6"/><path d="M1152.445 1531.643c83.785-33.998 161.335-84.248 227.422-149.18a776.532 776.532 0 01-131.126 121.17 766.345 766.345 0 01-96.296 28.01z" fill="#e6e6e6"/></svg>