<?xml version="1.0" encoding="UTF-8" standalone="no"?><!DOCTYPE svg PUBLIC "-//W3C//DTD SVG 1.1//EN" "http://www.w3.org/Graphics/SVG/1.1/DTD/svg11.dtd"><svg width="100%" height="100%" viewBox="0 0 36 36" version="1.1" xmlns="http://www.w3.org/2000/svg" xmlns:xlink="http://www.w3.org/1999/xlink" xml:space="preserve" xmlns:serif="http://www.serif.com/" style="fill-rule:evenodd;clip-rule:evenodd;stroke-linecap:square;stroke-miterlimit:1.5;"><g><path d="M26.997,22.966c-0.052,-0.156 -0.376,-0.381 -0.973,-0.679c-0.165,-0.096 -0.394,-0.225 -0.697,-0.385c-0.298,-0.165 -0.571,-0.316 -0.813,-0.45c-0.246,-0.139 -0.471,-0.273 -0.688,-0.398c-0.034,-0.026 -0.138,-0.1 -0.32,-0.225c-0.181,-0.126 -0.333,-0.216 -0.454,-0.277c-0.125,-0.061 -0.246,-0.091 -0.368,-0.091c-0.173,0 -0.384,0.126 -0.64,0.368c-0.259,0.242 -0.493,0.51 -0.705,0.796c-0.216,0.285 -0.441,0.549 -0.683,0.796c-0.238,0.242 -0.437,0.363 -0.588,0.363c-0.078,0 -0.173,-0.022 -0.29,-0.061c-0.117,-0.043 -0.204,-0.082 -0.264,-0.112c-0.061,-0.03 -0.16,-0.087 -0.307,-0.177c-0.147,-0.091 -0.225,-0.139 -0.242,-0.147c-1.173,-0.654 -2.18,-1.398 -3.02,-2.237c-0.839,-0.839 -1.583,-1.842 -2.232,-3.015c-0.008,-0.017 -0.056,-0.099 -0.147,-0.242c-0.09,-0.147 -0.151,-0.251 -0.181,-0.311c-0.031,-0.056 -0.065,-0.147 -0.108,-0.26c-0.044,-0.117 -0.065,-0.212 -0.065,-0.29c0,-0.155 0.121,-0.35 0.367,-0.592c0.243,-0.238 0.506,-0.467 0.796,-0.679c0.286,-0.212 0.55,-0.45 0.796,-0.705c0.242,-0.256 0.363,-0.472 0.363,-0.64c0,-0.122 -0.03,-0.243 -0.086,-0.368c-0.061,-0.126 -0.156,-0.277 -0.277,-0.454c-0.125,-0.182 -0.199,-0.29 -0.225,-0.325c-0.13,-0.212 -0.264,-0.441 -0.398,-0.683c-0.138,-0.247 -0.285,-0.519 -0.45,-0.818c-0.164,-0.298 -0.289,-0.527 -0.385,-0.692c-0.298,-0.597 -0.527,-0.925 -0.679,-0.973c-0.06,-0.026 -0.151,-0.039 -0.272,-0.039c-0.229,0 -0.532,0.039 -0.904,0.126c-0.372,0.086 -0.666,0.177 -0.878,0.272c-0.428,0.177 -0.883,0.701 -1.363,1.566c-0.437,0.804 -0.653,1.6 -0.653,2.388c0,0.229 0.013,0.454 0.043,0.67c0.031,0.221 0.087,0.467 0.16,0.74c0.078,0.272 0.143,0.475 0.186,0.61c0.048,0.134 0.139,0.367 0.264,0.713c0.13,0.342 0.208,0.55 0.234,0.627c0.298,0.84 0.653,1.588 1.064,2.245c0.675,1.095 1.596,2.228 2.764,3.396c1.168,1.168 2.301,2.089 3.395,2.768c0.662,0.411 1.41,0.766 2.25,1.064c0.073,0.026 0.285,0.104 0.627,0.229c0.341,0.13 0.579,0.217 0.713,0.264c0.13,0.048 0.334,0.108 0.61,0.186c0.273,0.078 0.519,0.13 0.736,0.16c0.22,0.031 0.445,0.048 0.674,0.048c0.788,0 1.584,-0.221 2.388,-0.658c0.865,-0.475 1.384,-0.93 1.566,-1.358c0.095,-0.216 0.182,-0.506 0.268,-0.878c0.087,-0.372 0.13,-0.675 0.13,-0.908c0,-0.117 -0.013,-0.208 -0.039,-0.268Z" style="fill:#cf1259;fill-rule:nonzero;"/><circle cx="18" cy="18" r="15.715" style="fill:none;stroke:#cf1259;stroke-width:2px;"/></g></svg>