<svg viewBox="0 0 8 8" xmlns="http://www.w3.org/2000/svg" fill-rule="evenodd" clip-rule="evenodd" stroke-linejoin="round" stroke-miterlimit="1.414"><circle cx="3.772" cy="3.772" r="3.772" fill="#185b8d"/><clipPath id="a"><path d="M1.819 1.683h4.178v4.178H1.819z"/></clipPath><g clip-path="url(#a)"><path d="M5.988 4.92c-.012-.036-.087-.088-.225-.157a4.694 4.694 0 00-.161-.089l-.188-.104-.159-.092a3.304 3.304 0 00-.074-.052.9.9 0 00-.105-.064.194.194 0 00-.085-.021c-.04 0-.089.029-.148.085-.06.056-.114.118-.163.184-.05.066-.102.127-.158.184-.055.056-.101.084-.136.084a.222.222 0 01-.067-.014.614.614 0 01-.132-.067 1.778 1.778 0 00-.056-.034 3.14 3.14 0 01-.698-.517 3.1 3.1 0 01-.516-.697 1.013 1.013 0 00-.034-.056 1.094 1.094 0 01-.042-.072c-.007-.013-.015-.034-.025-.06a.2.2 0 01-.015-.067c0-.036.028-.081.085-.137.056-.055.117-.108.184-.157a1.5 1.5 0 00.184-.163c.056-.059.084-.109.084-.148a.207.207 0 00-.02-.085.874.874 0 00-.064-.105l-.052-.075a4.19 4.19 0 01-.092-.158l-.104-.189-.089-.16c-.069-.138-.122-.214-.157-.225a.168.168 0 00-.063-.009.96.96 0 00-.209.029c-.086.02-.154.041-.203.063-.099.041-.204.162-.315.362a1.15 1.15 0 00-.141.707c.007.051.02.108.037.171.018.063.033.11.043.141l.061.165.054.145c.069.194.151.367.246.519.156.253.369.515.639.785s.532.483.785.64c.153.095.326.177.52.246l.145.053.165.061a2.179 2.179 0 00.311.08c.051.007.103.011.156.011.182 0 .366-.051.552-.152.2-.11.32-.215.362-.314.022-.05.042-.117.062-.203a.97.97 0 00.03-.21.166.166 0 00-.009-.062z" fill="#fff" fill-rule="nonzero"/></g></svg>