<svg viewBox="0 0 1570 1375" xmlns="http://www.w3.org/2000/svg" fill-rule="evenodd" clip-rule="evenodd" stroke-linejoin="round" stroke-miterlimit="2"><path d="M266.507 1374.307C-3.501 1137.21-83.25 736.313 96.407 408.068 304.387 28.08 781.73-111.565 1161.715 96.41c264.65 144.85 412.718 420.36 407.906 702.65-25.268-218.708-152.687-422.31-360.36-535.975C869.358 77.048 442.358 201.97 256.322 541.871c-66.965 122.349-93.64 255.98-84.498 385.577-19.144 155.862 14.943 313.5 94.683 446.859z" fill="#185b8d"/><path d="M1561.408 899.818c-33.927-205.755-158.693-394.421-355.623-502.206-339.906-186.04-766.903-61.124-952.944 278.786-43.933 80.269-70.524 165.395-81.02 251.057-9.142-129.596 17.537-263.235 84.498-385.578 186.042-339.91 613.039-464.825 952.945-278.786 207.676 113.667 335.1 317.285 360.35 536.065a778.12 778.12 0 01-8.206 100.662z" fill="#fff"/></svg>