<?xml version="1.0" encoding="UTF-8" standalone="no"?>
<!DOCTYPE svg PUBLIC "-//W3C//DTD SVG 1.1//EN" "http://www.w3.org/Graphics/SVG/1.1/DTD/svg11.dtd">
<svg width="100%" height="100%" viewBox="0 0 1570 1375" version="1.1" xmlns="http://www.w3.org/2000/svg" xmlns:xlink="http://www.w3.org/1999/xlink" xml:space="preserve" xmlns:serif="http://www.serif.com/" style="fill-rule:evenodd;clip-rule:evenodd;stroke-linejoin:round;stroke-miterlimit:2;">
    <g transform="matrix(1,0,0,1,822.655,-1802.62)">
        <g transform="matrix(1,0,0,1,-383.908,-356.418)">
            <g transform="matrix(0.769443,0.421136,-0.421136,0.769443,588.586,866.245)">
                <path d="M698.987,3083.7C299.187,2994.38 0,2637.11 0,2210.51C0,1716.66 400.937,1315.73 894.78,1315.73C1238.73,1315.73 1537.61,1510.21 1687.31,1795.15C1542.33,1590.26 1303.46,1456.39 1033.56,1456.39C591.809,1456.39 233.161,1815.04 233.161,2256.79C233.161,2415.8 279.629,2564.04 359.707,2688.64C425.875,2854.99 546.248,2993.98 698.987,3083.7Z" style="fill:rgb(24,91,141);"/>
            </g>
        </g>
        <g transform="matrix(1,0,0,1,-383.908,-356.418)">
            <g transform="matrix(0.688287,0.376717,-0.376717,0.688287,650.309,1179.45)">
                <path d="M1678.08,1812.1C1514.25,1602.83 1259.32,1468.25 973.204,1468.25C479.361,1468.25 78.424,1869.18 78.424,2363.03C78.424,2479.65 100.784,2591.09 141.467,2693.28C51.947,2553.99 0,2388.26 0,2210.51C0,1716.66 400.937,1315.73 894.78,1315.73C1196.51,1315.73 1463.56,1465.4 1625.66,1694.54C1645.55,1732.35 1663.09,1771.59 1678.08,1812.1Z" style="fill:white;"/>
            </g>
        </g>
    </g>
</svg>
