<?xml version="1.0" encoding="UTF-8" standalone="no"?>
<!DOCTYPE svg PUBLIC "-//W3C//DTD SVG 1.1//EN" "http://www.w3.org/Graphics/SVG/1.1/DTD/svg11.dtd">
<svg width="100%" height="100%" viewBox="0 0 793 793" version="1.1" xmlns="http://www.w3.org/2000/svg" xmlns:xlink="http://www.w3.org/1999/xlink" xml:space="preserve" xmlns:serif="http://www.serif.com/" style="fill-rule:evenodd;clip-rule:evenodd;stroke-linejoin:round;stroke-miterlimit:2;">
    <g transform="matrix(1,0,0,1,-830.42,-3119.62)">
        <g transform="matrix(1,0,0,1,0,-40)">
            <g transform="matrix(1,0,0,1,0,40)">
                <path d="M1083.47,3885.52C1287.4,3964.64 1517.2,3863.3 1596.32,3659.37C1675.44,3455.44 1574.11,3225.64 1370.17,3146.52C1166.24,3067.4 936.441,3168.73 857.322,3372.66C778.203,3576.6 879.534,3806.4 1083.47,3885.52ZM1078.23,3871.74C1260.65,3942.51 1466.22,3851.87 1536.99,3669.44C1607.76,3487.02 1517.12,3281.46 1334.7,3210.68C1152.28,3139.91 946.714,3230.55 875.94,3412.98C805.166,3595.4 895.809,3800.96 1078.23,3871.74Z" style="fill:rgb(230,230,230);"/>
            </g>
        </g>
    </g>
</svg>
