<?xml version="1.0" encoding="UTF-8" standalone="no"?>
<!DOCTYPE svg PUBLIC "-//W3C//DTD SVG 1.1//EN" "http://www.w3.org/Graphics/SVG/1.1/DTD/svg11.dtd">
<svg width="100%" height="100%" viewBox="0 0 32 32" version="1.1" xmlns="http://www.w3.org/2000/svg" xmlns:xlink="http://www.w3.org/1999/xlink" xml:space="preserve" xmlns:serif="http://www.serif.com/" style="fill-rule:evenodd;clip-rule:evenodd;stroke-linejoin:round;stroke-miterlimit:2;">
    <g transform="matrix(1,0,0,1,-1358.51,-4909)">
        <g transform="matrix(1,0,0,1,-1.81557,110.388)">
            <g transform="matrix(1,0,0,1,190.323,0)">
                <circle cx="1185.71" cy="4814.33" r="15.715" style="fill:rgb(0,179,208);"/>
            </g>
        </g>
        <g transform="matrix(1,0,0,1,-1.81557,110.388)">
            <g id="vk-social-logotype" transform="matrix(0.204557,0,0,0.204557,1376.04,4814.33)">
                <g transform="matrix(1,0,0,1,-48.248,-48.248)">
                    <clipPath id="_clip1">
                        <rect x="0" y="0" width="96.496" height="96.496"/>
                    </clipPath>
                    <g clip-path="url(#_clip1)">
                        <path d="M92.499,65.178C89.626,61.732 86.245,58.791 83.046,55.668C80.16,52.853 79.978,51.22 82.298,47.971C84.83,44.425 87.553,41.015 90.108,37.485C92.493,34.186 94.931,30.896 96.186,26.946C96.982,24.433 96.278,23.323 93.701,22.883C93.257,22.806 92.798,22.802 92.346,22.802L77.057,22.784C75.174,22.756 74.133,23.577 73.467,25.246C72.568,27.502 71.641,29.756 70.57,31.933C68.14,36.869 65.426,41.64 61.621,45.68C60.782,46.571 59.854,47.697 58.452,47.233C56.698,46.593 56.181,43.703 56.21,42.726L56.195,25.079C55.855,22.558 55.296,21.434 52.793,20.944L36.911,20.947C34.791,20.947 33.728,21.766 32.596,23.092C31.943,23.858 31.746,24.355 33.088,24.609C35.724,25.109 37.209,26.815 37.603,29.458C38.235,33.681 38.191,37.921 37.827,42.161C37.72,43.399 37.507,44.634 37.016,45.79C36.248,47.607 35.008,47.977 33.379,46.859C31.904,45.847 30.868,44.419 29.854,42.985C26.045,37.603 23.006,31.799 20.528,25.7C19.812,23.938 18.577,22.87 16.71,22.841C12.123,22.768 7.535,22.756 2.948,22.845C0.188,22.897 -0.635,24.237 0.489,26.739C5.485,37.852 11.046,48.656 18.305,58.498C22.032,63.549 26.311,68.008 31.839,71.168C38.104,74.75 44.848,75.828 51.951,75.496C55.277,75.34 56.276,74.475 56.43,71.16C56.534,68.892 56.791,66.637 57.91,64.599C59.008,62.599 60.671,62.218 62.588,63.462C63.547,64.085 64.355,64.878 65.118,65.714C66.99,67.762 68.795,69.872 70.738,71.851C73.175,74.331 76.062,75.796 79.692,75.497L93.744,75.5C96.008,75.352 97.182,72.576 95.882,70.049C94.969,68.279 93.771,66.703 92.499,65.178Z" style="fill:white;fill-rule:nonzero;"/>
                    </g>
                </g>
            </g>
        </g>
    </g>
</svg>
